<mxfile host="app.diagrams.net" agent="Mozilla/5.0 (Windows NT 10.0; Win64; x64) AppleWebKit/537.36 (KHTML, like Gecko) Chrome/135.0.0.0 Safari/537.36 OPR/120.0.0.0" version="28.1.0">
  <diagram name="PÃ¡gina-1" id="vFJnnKSgSQHf1o-3BqZ3">
    <mxGraphModel dx="818" dy="439" grid="1" gridSize="10" guides="1" tooltips="1" connect="1" arrows="1" fold="1" page="1" pageScale="1" pageWidth="827" pageHeight="1169" math="0" shadow="0">
      <root>
        <mxCell id="0" />
        <mxCell id="1" parent="0" />
        <mxCell id="NZcoGvg_a8vHXOWzL33Y-8" value="Juguete" style="swimlane;fontStyle=1;align=center;verticalAlign=top;childLayout=stackLayout;horizontal=1;startSize=26;horizontalStack=0;resizeParent=1;resizeParentMax=0;resizeLast=0;collapsible=1;marginBottom=0;whiteSpace=wrap;html=1;" vertex="1" parent="1">
          <mxGeometry x="319" y="80" width="350" height="330" as="geometry" />
        </mxCell>
        <mxCell id="NZcoGvg_a8vHXOWzL33Y-9" value="&lt;div&gt;-nombre: String&lt;/div&gt;&lt;div&gt;-precio: double&lt;/div&gt;&lt;div&gt;-categoria: String&lt;/div&gt;&lt;div&gt;-edad_recomendada:int&lt;/div&gt;" style="text;strokeColor=none;fillColor=none;align=left;verticalAlign=top;spacingLeft=4;spacingRight=4;overflow=hidden;rotatable=0;points=[[0,0.5],[1,0.5]];portConstraint=eastwest;whiteSpace=wrap;html=1;" vertex="1" parent="NZcoGvg_a8vHXOWzL33Y-8">
          <mxGeometry y="26" width="350" height="74" as="geometry" />
        </mxCell>
        <mxCell id="NZcoGvg_a8vHXOWzL33Y-10" value="" style="line;strokeWidth=1;fillColor=none;align=left;verticalAlign=middle;spacingTop=-1;spacingLeft=3;spacingRight=3;rotatable=0;labelPosition=right;points=[];portConstraint=eastwest;strokeColor=inherit;" vertex="1" parent="NZcoGvg_a8vHXOWzL33Y-8">
          <mxGeometry y="100" width="350" height="8" as="geometry" />
        </mxCell>
        <mxCell id="NZcoGvg_a8vHXOWzL33Y-11" value="+aplicar_descuento(double porcentaje): void&lt;div&gt;+cambiar_categoria(String, nueva_categoria): void&lt;/div&gt;&lt;div&gt;+mostrar(): void&lt;/div&gt;&lt;div&gt;+getNombre(): String&lt;/div&gt;&lt;div&gt;+getPrecio(): double&lt;/div&gt;&lt;div&gt;+getCategoria(): String&lt;/div&gt;&lt;div&gt;+getEdad_recomendada():&amp;nbsp; int&lt;/div&gt;&lt;div&gt;+setNombre(String nombre): void&lt;/div&gt;&lt;div&gt;+setPrecio(double precio): void&lt;/div&gt;&lt;div&gt;+setCategoria(String categoria): void&lt;/div&gt;&lt;div&gt;+setEdad_recomendada(int edad): void&lt;/div&gt;&lt;div&gt;&lt;br&gt;&lt;/div&gt;" style="text;strokeColor=none;fillColor=none;align=left;verticalAlign=top;spacingLeft=4;spacingRight=4;overflow=hidden;rotatable=0;points=[[0,0.5],[1,0.5]];portConstraint=eastwest;whiteSpace=wrap;html=1;" vertex="1" parent="NZcoGvg_a8vHXOWzL33Y-8">
          <mxGeometry y="108" width="350" height="222" as="geometry" />
        </mxCell>
      </root>
    </mxGraphModel>
  </diagram>
</mxfile>
